<svg xmlns="http://www.w3.org/2000/svg" xmlns:xlink="http://www.w3.org/1999/xlink" width="500" zoomAndPan="magnify" viewBox="0 0 375 374.999991" height="500" preserveAspectRatio="xMidYMid meet" version="1.0"><defs><g/><clipPath id="3c5401cd6c"><path d="M 95 30 L 280 30 L 280 261.753906 L 95 261.753906 Z M 95 30 " clip-rule="nonzero"/></clipPath><clipPath id="1f5a1e2d89"><path d="M 146 14.253906 L 229 14.253906 L 229 53 L 146 53 Z M 146 14.253906 " clip-rule="nonzero"/></clipPath></defs><g clip-path="url(#3c5401cd6c)"><path fill="#ffffff" d="M 257.800781 261.171875 L 117.152344 261.171875 C 105.019531 261.171875 95.136719 251.289062 95.136719 239.140625 L 95.136719 52.097656 C 95.136719 39.9375 105.019531 30.042969 117.152344 30.042969 L 149.773438 30.042969 L 149.773438 36.519531 L 117.152344 36.519531 C 108.585938 36.519531 101.617188 43.503906 101.617188 52.097656 L 101.617188 239.140625 C 101.617188 247.722656 108.585938 254.691406 117.152344 254.691406 L 257.800781 254.691406 C 266.390625 254.691406 273.375 247.722656 273.375 239.140625 L 273.375 52.097656 C 273.375 43.503906 266.390625 36.519531 257.800781 36.519531 L 225.214844 36.519531 L 225.214844 30.042969 L 257.800781 30.042969 C 269.960938 30.042969 279.855469 39.9375 279.855469 52.097656 L 279.855469 239.140625 C 279.855469 251.289062 269.960938 261.171875 257.800781 261.171875 " fill-opacity="1" fill-rule="nonzero"/></g><path fill="#ffffff" d="M 248.105469 88.714844 L 169.753906 88.714844 L 169.753906 82.238281 L 248.105469 82.238281 L 248.105469 88.714844 " fill-opacity="1" fill-rule="nonzero"/><path fill="#ffffff" d="M 208.929688 104.734375 L 169.753906 104.734375 L 169.753906 98.257812 L 208.929688 98.257812 L 208.929688 104.734375 " fill-opacity="1" fill-rule="nonzero"/><path fill="#ffffff" d="M 248.105469 151.566406 L 169.753906 151.566406 L 169.753906 145.085938 L 248.105469 145.085938 L 248.105469 151.566406 " fill-opacity="1" fill-rule="nonzero"/><path fill="#ffffff" d="M 208.929688 167.585938 L 169.753906 167.585938 L 169.753906 161.105469 L 208.929688 161.105469 L 208.929688 167.585938 " fill-opacity="1" fill-rule="nonzero"/><path fill="#ffffff" d="M 248.105469 210.445312 L 169.753906 210.445312 L 169.753906 203.964844 L 248.105469 203.964844 L 248.105469 210.445312 " fill-opacity="1" fill-rule="nonzero"/><path fill="#ffffff" d="M 208.929688 226.464844 L 169.753906 226.464844 L 169.753906 219.984375 L 208.929688 219.984375 L 208.929688 226.464844 " fill-opacity="1" fill-rule="nonzero"/><path fill="#ffffff" d="M 137.261719 87.703125 L 142.6875 95.472656 L 139.183594 95.613281 L 156.164062 76.402344 L 142.816406 98.292969 L 141.472656 100.484375 L 139.285156 98.433594 L 132.363281 91.957031 L 137.261719 87.703125 " fill-opacity="1" fill-rule="nonzero"/><path fill="#ffffff" d="M 154.761719 109.039062 L 123.644531 109.039062 L 123.644531 77.921875 L 139.195312 77.921875 L 139.195312 84.402344 L 130.125 84.402344 L 130.125 102.558594 L 148.28125 102.558594 L 148.28125 93.488281 L 154.761719 93.488281 L 154.761719 109.039062 " fill-opacity="1" fill-rule="nonzero"/><path fill="#ffffff" d="M 130.125 165.421875 L 148.28125 165.421875 L 148.28125 147.265625 L 130.125 147.265625 Z M 154.761719 171.902344 L 123.644531 171.902344 L 123.644531 140.785156 L 154.761719 140.785156 L 154.761719 171.902344 " fill-opacity="1" fill-rule="nonzero"/><path fill="#ffffff" d="M 130.125 224.300781 L 148.28125 224.300781 L 148.28125 206.140625 L 130.125 206.140625 Z M 154.761719 230.777344 L 123.644531 230.777344 L 123.644531 199.664062 L 154.761719 199.664062 L 154.761719 230.777344 " fill-opacity="1" fill-rule="nonzero"/><g clip-path="url(#1f5a1e2d89)"><path fill="#ffffff" d="M 165.679688 20.652344 C 158.695312 20.652344 153.027344 26.332031 153.027344 33.304688 C 153.027344 40.277344 158.695312 45.960938 165.679688 45.960938 L 209.296875 45.960938 C 216.28125 45.960938 221.964844 40.277344 221.964844 33.304688 C 221.964844 26.332031 216.28125 20.652344 209.296875 20.652344 Z M 209.296875 52.4375 L 165.679688 52.4375 C 155.128906 52.4375 146.546875 43.859375 146.546875 33.304688 C 146.546875 22.753906 155.128906 14.171875 165.679688 14.171875 L 209.296875 14.171875 C 219.851562 14.171875 228.441406 22.753906 228.441406 33.304688 C 228.441406 43.859375 219.851562 52.4375 209.296875 52.4375 " fill-opacity="1" fill-rule="nonzero"/></g><g fill="#ffffff" fill-opacity="1"><g transform="translate(88.046117, 340.986756)"><g><path d="M 19.140625 -9.828125 L 19.140625 -49.6875 L 12.296875 -49.6875 C 10.941406 -49.6875 10.265625 -48.78125 10.265625 -46.96875 L 10.265625 -42.84375 L 1.3125 -43.453125 L 1.3125 -58.390625 L 47.234375 -58.390625 L 47.234375 -43.453125 L 38.28125 -42.84375 L 38.28125 -46.96875 C 38.28125 -47.96875 38.132812 -48.671875 37.84375 -49.078125 C 37.550781 -49.484375 36.847656 -49.6875 35.734375 -49.6875 L 29.765625 -49.6875 L 29.765625 -7.71875 L 36.703125 -7.46875 L 36.703125 0 L 11.9375 0 L 11.9375 -7.109375 L 16.59375 -7.375 C 18.289062 -7.550781 19.140625 -8.367188 19.140625 -9.828125 Z M 19.140625 -9.828125 "/></g></g></g><g fill="#ffffff" fill-opacity="1"><g transform="translate(151.605109, 340.986756)"><g><path d="M 2.984375 0 L 2.984375 -7.109375 L 5.875 -7.375 C 7.570312 -7.550781 8.421875 -8.367188 8.421875 -9.828125 L 8.421875 -50.65625 L 3.421875 -50.921875 L 3.421875 -58.390625 L 27.484375 -58.390625 C 36.085938 -58.390625 42.800781 -56.101562 47.625 -51.53125 C 52.457031 -46.96875 54.875 -40.207031 54.875 -31.25 C 54.875 -25.695312 54.140625 -20.851562 52.671875 -16.71875 C 51.210938 -12.59375 49.222656 -9.363281 46.703125 -7.03125 C 41.671875 -2.34375 35.410156 0 27.921875 0 Z M 19.140625 -49.875 L 19.140625 -8.421875 L 28.09375 -8.421875 C 33.125 -8.421875 37.046875 -10.234375 39.859375 -13.859375 C 42.671875 -17.492188 44.078125 -22.765625 44.078125 -29.671875 C 44.078125 -43.140625 38.367188 -49.875 26.953125 -49.875 Z M 19.140625 -49.875 "/></g></g></g><g fill="#ffffff" fill-opacity="1"><g transform="translate(224.99558, 340.986756)"><g><path d="M 2.8125 0 L 2.8125 -7.109375 L 5.96875 -7.375 C 7.488281 -7.488281 8.25 -8.304688 8.25 -9.828125 L 8.25 -50.65625 L 3.25 -50.921875 L 3.25 -58.390625 L 19.046875 -58.390625 L 43.90625 -18.09375 L 44.078125 -18.09375 L 44.078125 -50.65625 L 38.28125 -50.921875 L 38.28125 -58.390625 L 59.703125 -58.390625 L 59.703125 -51.265625 L 56.546875 -51.015625 C 55.140625 -50.890625 54.4375 -49.976562 54.4375 -48.28125 L 54.4375 0 L 44.15625 0 L 18.78125 -40.90625 L 18.609375 -40.90625 L 18.609375 -7.71875 L 24.3125 -7.46875 L 24.3125 0 Z M 2.8125 0 "/></g></g></g></svg>